<svg xmlns="http://www.w3.org/2000/svg" viewBox="0 0 400 400" width="400" height="400">
  <rect width="100%" height="100%" fill="white" />
  
  <line x1="200.0" y1="80.0" x2="200.0" y2="320.0" stroke="black" stroke-width="3" />
  <line x1="303.9" y1="260.0" x2="96.1" y2="140.0" stroke="black" stroke-width="3" />
  <line x1="96.1" y1="260.0" x2="303.9" y2="140.0" stroke="black" stroke-width="3" />

  <path d="M 200.0 80.0 L 303.9 260.0" stroke="#cccccc" stroke-width="2" />
  <path d="M 303.9 260.0 L 96.1 260.0" stroke="#cccccc" stroke-width="2" />
  <path d="M 96.1 260.0 L 200.0 80.0" stroke="#cccccc" stroke-width="2" />
  
  <path d="M 96.1 140.0 L 303.9 140.0" stroke="#cccccc" stroke-width="2" />
  <path d="M 303.9 140.0 L 200.0 320.0" stroke="#cccccc" stroke-width="2" />
  <path d="M 200.0 320.0 L 96.1 140.0" stroke="#cccccc" stroke-width="2" />

  <circle cx="200.0" cy="80.0" r="35" fill="#FFA500" stroke="black" stroke-width="1" />
  <text x="200.0" y="80.0" dy="0.35em" text-anchor="middle" font-size="24" font-family="sans-serif" fill="white" font-weight="bold" stroke="black" stroke-width="0.5">橙</text>
  
  <circle cx="303.9" cy="260.0" r="35" fill="#FF69B4" stroke="black" stroke-width="1" />
  <text x="303.9" y="260.0" dy="0.35em" text-anchor="middle" font-size="24" font-family="sans-serif" fill="white" font-weight="bold" stroke="black" stroke-width="0.5">桃</text>
  
  <circle cx="96.1" cy="260.0" r="35" fill="#FFD700" stroke="black" stroke-width="1" />
  <text x="96.1" y="260.0" dy="0.35em" text-anchor="middle" font-size="24" font-family="sans-serif" fill="white" font-weight="bold" stroke="black" stroke-width="0.5">黄</text>
  
  <circle cx="96.1" cy="140.0" r="35" fill="#32CD32" stroke="black" stroke-width="1" />
  <text x="96.1" y="140.0" dy="0.35em" text-anchor="middle" font-size="24" font-family="sans-serif" fill="white" font-weight="bold" stroke="black" stroke-width="0.5">緑</text>
  
  <circle cx="303.9" cy="140.0" r="35" fill="#4169E1" stroke="black" stroke-width="1" />
  <text x="303.9" y="140.0" dy="0.35em" text-anchor="middle" font-size="24" font-family="sans-serif" fill="white" font-weight="bold" stroke="black" stroke-width="0.5">青</text>
  
  <circle cx="200.0" cy="320.0" r="35" fill="#8B4513" stroke="black" stroke-width="1" />
  <text x="200.0" y="320.0" dy="0.35em" text-anchor="middle" font-size="24" font-family="sans-serif" fill="white" font-weight="bold" stroke="black" stroke-width="0.5">茶</text>
</svg>