<svg viewBox="0 0 100 100" xmlns="http://www.w3.org/2000/svg">
  <path d="
    M 84.00 50.00
    A 8 8 0 0 1 81.41 63.01
    A 8 8 0 0 1 74.04 74.04
    A 8 8 0 0 1 63.01 81.41
    A 8 8 0 0 1 50.00 84.00
    A 8 8 0 0 1 36.99 81.41
    A 8 8 0 0 1 25.96 74.04
    A 8 8 0 0 1 18.59 63.01
    A 8 8 0 0 1 16.00 50.00
    A 8 8 0 0 1 18.59 36.99
    A 8 8 0 0 1 25.96 25.96
    A 8 8 0 0 1 36.99 18.59
    A 8 8 0 0 1 50.00 16.00
    A 8 8 0 0 1 63.01 18.59
    A 8 8 0 0 1 74.04 25.96
    A 8 8 0 0 1 81.41 36.99
    A 8 8 0 0 1 84.00 50.00
    Z
  " fill="#FDC600" transform="translate(50 50) scale(1.2) translate(-50 -50)" />
</svg>