<svg viewBox="0 0 100 100" xmlns="http://www.w3.org/2000/svg">
  <!-- <defs>
    <path id="half-blue-petal" d="
      M 50,41
      C 48,38 45,30 45,17
      C 45,12 46,5 50,5
      Z
    " />

    <g id="blue-petal">
      <use href="#half-blue-petal" />
      <use href="#half-blue-petal" transform="translate(100, 0) scale(-1, 1)" />
    </g>
  </defs> -->
  <defs>
    <path id="blue-petal" d="
      M 50,40.7
      C 47.2,38 44.5,29 44.5,17
      C 44.5,12 46,5 50,5
      C 54,5 55.5,12 55.5,17
      C 55.5,29 52.8,38 50,40.7
      Z
    " />
  </defs>

  <g fill="#0085E3">
    <use href="#blue-petal" transform="rotate(0 50 50)" />
    <use href="#blue-petal" transform="rotate(45 50 50)" />
    <use href="#blue-petal" transform="rotate(90 50 50)" />
    <use href="#blue-petal" transform="rotate(135 50 50)" />
    <use href="#blue-petal" transform="rotate(180 50 50)" />
    <use href="#blue-petal" transform="rotate(225 50 50)" />
    <use href="#blue-petal" transform="rotate(270 50 50)" />
    <use href="#blue-petal" transform="rotate(315 50 50)" />
  </g>
</svg>
